0
SECTION
2
HEADER
0
ENDSEC
0
SECTION
2
ENTITIES
0
TEXT
8
0
10
0
20
3500
40
80
1
ONEOFF 인포데스크 (1000 x 2000 x 1000 mm)
0
TEXT
8
0
10
0
20
3370
40
40
1
Front / Side / Top Views (mm)
0
TEXT
8
0
10
0
20
2100
40
30
1
Front View (W1000 x H2000)
0
LINE
8
0
10
0
20
0
11
1000
21
0
0
LINE
8
0
10
1000
20
0
11
1000
21
2000
0
LINE
8
0
10
1000
20
2000
11
0
21
2000
0
LINE
8
0
10
0
20
2000
11
0
21
0
0
LINE
8
0
10
0
20
0
11
0
21
-80
0
LINE
8
0
10
1000
20
0
11
1000
21
-80
0
LINE
8
0
10
0
20
-120
11
1000
21
-120
0
LINE
8
0
10
0
20
-120
11
20
21
-110
0
LINE
8
0
10
0
20
-120
11
20
21
-130
0
LINE
8
0
10
1000
20
-120
11
980
21
-110
0
LINE
8
0
10
1000
20
-120
11
980
21
-130
0
TEXT
8
0
10
450
20
-190
40
40
1
1000
0
LINE
8
0
10
0
20
0
11
-80
21
0
0
LINE
8
0
10
0
20
2000
11
-80
21
2000
0
LINE
8
0
10
-120
20
0
11
-120
21
2000
0
LINE
8
0
10
-120
20
0
11
-110
21
20
0
LINE
8
0
10
-120
20
0
11
-130
21
20
0
LINE
8
0
10
-120
20
2000
11
-110
21
1980
0
LINE
8
0
10
-120
20
2000
11
-130
21
1980
0
TEXT
8
0
10
-260
20
900
40
40
1
2000
50
90
0
TEXT
8
0
10
1200
20
2100
40
30
1
Side View (D1000 x H2000)
0
LINE
8
0
10
1200
20
0
11
2200
21
0
0
LINE
8
0
10
2200
20
0
11
2200
21
2000
0
LINE
8
0
10
2200
20
2000
11
1200
21
2000
0
LINE
8
0
10
1200
20
2000
11
1200
21
0
0
LINE
8
0
10
1200
20
0
11
1200
21
-80
0
LINE
8
0
10
2200
20
0
11
2200
21
-80
0
LINE
8
0
10
1200
20
-120
11
2200
21
-120
0
LINE
8
0
10
1200
20
-120
11
1220
21
-110
0
LINE
8
0
10
1200
20
-120
11
1220
21
-130
0
LINE
8
0
10
2200
20
-120
11
2180
21
-110
0
LINE
8
0
10
2200
20
-120
11
2180
21
-130
0
TEXT
8
0
10
1650
20
-190
40
40
1
1000
0
LINE
8
0
10
1200
20
0
11
1120
21
0
0
LINE
8
0
10
1200
20
2000
11
1120
21
2000
0
LINE
8
0
10
1080
20
0
11
1080
21
2000
0
LINE
8
0
10
1080
20
0
11
1090
21
20
0
LINE
8
0
10
1080
20
0
11
1070
21
20
0
LINE
8
0
10
1080
20
2000
11
1090
21
1980
0
LINE
8
0
10
1080
20
2000
11
1070
21
1980
0
TEXT
8
0
10
950
20
900
40
40
1
2000
50
90
0
TEXT
8
0
10
0
20
3300
40
30
1
Top View (W1000 x D1000)
0
LINE
8
0
10
0
20
2200
11
1000
21
2200
0
LINE
8
0
10
1000
20
2200
11
1000
21
3200
0
LINE
8
0
10
1000
20
3200
11
0
21
3200
0
LINE
8
0
10
0
20
3200
11
0
21
2200
0
LINE
8
0
10
0
20
2200
11
0
21
2120
0
LINE
8
0
10
1000
20
2200
11
1000
21
2120
0
LINE
8
0
10
0
20
2080
11
1000
21
2080
0
LINE
8
0
10
0
20
2080
11
20
21
2070
0
LINE
8
0
10
0
20
2080
11
20
21
2090
0
LINE
8
0
10
1000
20
2080
11
980
21
2070
0
LINE
8
0
10
1000
20
2080
11
980
21
2090
0
TEXT
8
0
10
450
20
2000
40
40
1
1000
0
LINE
8
0
10
0
20
2200
11
-80
21
2200
0
LINE
8
0
10
0
20
3200
11
-80
21
3200
0
LINE
8
0
10
-120
20
2200
11
-120
21
3200
0
LINE
8
0
10
-120
20
2200
11
-110
21
2220
0
LINE
8
0
10
-120
20
2200
11
-130
21
2220
0
LINE
8
0
10
-120
20
3200
11
-110
21
3180
0
LINE
8
0
10
-120
20
3200
11
-130
21
3180
0
TEXT
8
0
10
-260
20
2650
40
40
1
1000
50
90
0
ENDSEC
0
EOF
