<svg xmlns="http://www.w3.org/2000/svg" width="1200" height="720" viewBox="0 0 1200 720" role="img" aria-label="LED rental abstract visual">
  <defs>
    <linearGradient id="bg" x1="0" y1="0" x2="1" y2="1">
      <stop offset="0%" stop-color="#0b1e5b"/>
      <stop offset="45%" stop-color="#14318a"/>
      <stop offset="100%" stop-color="#1d4ed8"/>
    </linearGradient>
    <radialGradient id="glow" cx="0.2" cy="0.2" r="0.8">
      <stop offset="0%" stop-color="#7dd3fc" stop-opacity="0.75"/>
      <stop offset="40%" stop-color="#3b82f6" stop-opacity="0.5"/>
      <stop offset="100%" stop-color="#0b1e5b" stop-opacity="0"/>
    </radialGradient>
    <radialGradient id="glow2" cx="0.85" cy="0.35" r="0.7">
      <stop offset="0%" stop-color="#38bdf8" stop-opacity="0.55"/>
      <stop offset="60%" stop-color="#1d4ed8" stop-opacity="0.15"/>
      <stop offset="100%" stop-color="#0b1e5b" stop-opacity="0"/>
    </radialGradient>
    <linearGradient id="beam" x1="0" y1="0" x2="1" y2="0">
      <stop offset="0%" stop-color="#93c5fd" stop-opacity="0"/>
      <stop offset="45%" stop-color="#bfdbfe" stop-opacity="0.35"/>
      <stop offset="100%" stop-color="#ffffff" stop-opacity="0"/>
    </linearGradient>
  </defs>

  <rect width="1200" height="720" fill="url(#bg)"/>
  <rect width="1200" height="720" fill="url(#glow)"/>
  <rect width="1200" height="720" fill="url(#glow2)"/>

  <g opacity="0.7">
    <path d="M-40 520 C 180 430, 420 420, 640 500 C 820 565, 980 590, 1240 540 L1240 720 L-40 720 Z" fill="#0f2b7a"/>
    <path d="M-60 560 C 160 470, 420 470, 650 540 C 870 605, 1020 630, 1260 590" fill="none" stroke="#6ea8ff" stroke-width="3" opacity="0.5"/>
    <path d="M-60 590 C 180 520, 460 510, 700 575 C 900 630, 1040 655, 1260 620" fill="none" stroke="#a5c7ff" stroke-width="2" opacity="0.45"/>
  </g>

  <g opacity="0.35">
    <circle cx="250" cy="180" r="120" fill="#6ea8ff"/>
    <circle cx="910" cy="210" r="160" fill="#60a5fa"/>
    <circle cx="980" cy="470" r="110" fill="#1e40af"/>
  </g>

  <g opacity="0.6">
    <rect x="80" y="120" width="120" height="8" rx="4" fill="url(#beam)"/>
    <rect x="140" y="150" width="260" height="6" rx="3" fill="url(#beam)"/>
    <rect x="720" y="120" width="320" height="6" rx="3" fill="url(#beam)"/>
    <rect x="820" y="160" width="220" height="8" rx="4" fill="url(#beam)"/>
  </g>

  <g opacity="0.8" fill="#e2e8f0">
    <circle cx="520" cy="260" r="4"/>
    <circle cx="560" cy="280" r="3"/>
    <circle cx="600" cy="300" r="2"/>
    <circle cx="640" cy="320" r="3"/>
    <circle cx="680" cy="340" r="4"/>
  </g>
</svg>
