<svg id="레이어_1" data-name="레이어 1" xmlns="http://www.w3.org/2000/svg" viewBox="0 0 2048 655.83">
  <g>
    <g>
      <path d="M638.0548,334.543c0,130.5962-105.88,236.4665-236.4665,236.4665-130.5994,0-236.4665-105.87-236.4665-236.4665,0-130.59,105.8671-236.46,236.4665-236.46C532.175,98.0828,638.0548,203.9531,638.0548,334.543Z" style="fill: #fff"/>
      <g>
        <path d="M512.5753,318.0612c-37.6124-25.5622-85.7662-15.153-111.0853,23.2806a78.3938,78.3938,0,0,1-65.2137,36.1211c-40.2724,0-67.75-28.3078-75.9175-57.5843,0,0-.3993-1.4824-.5038-1.8174-3.2105-12.2379-4.0222-18.05-4.0222-31.0353,0-69.9734,71.8493-147.9206,175.2441-147.9206,105.9258,0,166.5486,80.6344,182.2123,125.4612-.3136-.8426-.5686-1.5926-.8237-2.383-30.0516-87.6636-113.1678-150.6726-211.08-150.6726-123.1085,0-222.9735,99.8128-222.9735,223.0258,0,110.1049,79.4133,204.3428,189.5917,204.3428,87.83,0,146.8809-49.2422,173.9286-117.14C556.8058,384.5879,546.3015,340.9664,512.5753,318.0612Z" style="fill: #003764"/>
        <path d="M614.6545,268.896c-13.0654-43.7317-74.0786-129.7907-183.5776-129.7907-103.3948,0-175.2441,77.9472-175.2441,147.9206,0,12.9854.8117,18.7974,4.0222,31.0353a65.4532,65.4532,0,0,1-2.03-15.9125c0-72.8948,72.9684-123.3887,147.988-123.3887,101.5811,0,183.9063,82.3284,183.9063,183.8667A202.7522,202.7522,0,0,1,477.3673,544.2576v.0615C563.1706,513.2436,624.4421,431.05,624.4421,334.5367,624.4421,311.6932,621.38,291.5462,614.6545,268.896Z" style="fill: #e4032e"/>
      </g>
    </g>
    <g>
      <path d="M728.41,261.1684V236.8437H837.4848v24.3247H792.42l49.93,149.2742-23.5582,7.1695L783.97,310.5845l-35.077,108.82-24.58-7.4265,50.44-150.81Zm175.6461-38.15H930.685v223.015H904.0561V341.31H878.4507V444.7529h-25.86v-221.48h25.86v92.4336h25.6054Z" style="fill: #575757"/>
      <path d="M963.4556,253.23V229.4193H1091.478V253.23H1036.94l56.8427,69.39-19.4594,15.8746-45.5765-56.8427-45.32,60.6823-20.2281-16.3864,56.5879-72.7173Zm177.1837,145.4346a49.26,49.26,0,0,1-4.6084,21.1232,57.9809,57.9809,0,0,1-12.292,17.2837,60.5335,60.5335,0,0,1-18.5621,11.778,58.5616,58.5616,0,0,1-22.4038,4.3536,60.9816,60.9816,0,0,1-41.223-16.1316,57.9366,57.9366,0,0,1-12.29-17.2837,49.23,49.23,0,0,1-4.6106-21.1232,50.1075,50.1075,0,0,1,4.6106-21.2518,57.4182,57.4182,0,0,1,12.29-17.41,60.9822,60.9822,0,0,1,41.223-16.1315,58.56,58.56,0,0,1,22.4038,4.3536,60.4529,60.4529,0,0,1,18.5621,11.7779,57.4613,57.4613,0,0,1,12.292,17.41A50.1386,50.1386,0,0,1,1140.6393,398.6646Zm-27.1408-.257a29.3487,29.3487,0,0,0-9.219-21.6351,29.979,29.979,0,0,0-21.7635-9.0883,31.0385,31.0385,0,0,0-30.7256,30.7234,29.12,29.12,0,0,0,9.0905,21.5087,29.75,29.75,0,0,0,21.6351,8.962,30.1858,30.1858,0,0,0,21.7635-8.962A28.926,28.926,0,0,0,1113.4985,398.4076Zm18.4358-57.0975V292.9176h-41.48V269.1068h41.48V223.0185h27.6525V341.31Z" style="fill: #575757"/>
      <path d="M1309.6254,335.4211h-27.6526V253.9988h-80.3986V229.4193h108.0512Zm75.02,63.2435a49.2281,49.2281,0,0,1-4.6084,21.1232,58.0134,58.0134,0,0,1-12.29,17.2837,60.5519,60.5519,0,0,1-18.5632,11.778,58.5612,58.5612,0,0,1-22.4038,4.3536,60.9816,60.9816,0,0,1-41.223-16.1316,58.0113,58.0113,0,0,1-12.29-17.2837,49.2281,49.2281,0,0,1-4.6084-21.1232,50.1056,50.1056,0,0,1,4.6084-21.2518,57.491,57.491,0,0,1,12.29-17.41,60.9822,60.9822,0,0,1,41.223-16.1315,58.5594,58.5594,0,0,1,22.4038,4.3536,60.4713,60.4713,0,0,1,18.5632,11.7779,57.493,57.493,0,0,1,12.29,17.41A50.1056,50.1056,0,0,1,1384.6458,398.6646Zm-27.1408-.257a29.3538,29.3538,0,0,0-9.2157-21.6351,29.9875,29.9875,0,0,0-21.7657-9.0883A31.0347,31.0347,0,0,0,1295.8,398.4076a29.118,29.118,0,0,0,9.0883,21.5087,29.75,29.75,0,0,0,21.6351,8.962,30.1944,30.1944,0,0,0,21.7657-8.962A28.9309,28.9309,0,0,0,1357.505,398.4076Zm7.9384-175.3891h27.6526V341.31h-27.6526V313.4027H1328.83V290.6134h36.6134V270.13H1328.83V247.3411h36.6134Z" style="fill: #575757"/>
      <path d="M1428.94,261.1684V236.8437h109.0748v24.3247H1492.95l49.93,149.2742-23.5581,7.1695-34.8222-107.0276-35.0769,108.82-24.58-7.4265,50.44-150.81Zm130.07-37.8951h25.86v221.48h-25.86V329.5321H1530.076V304.4407h28.9331Zm45.5765-.2548h26.629v223.015h-26.629Z" style="fill: #575757"/>
      <path d="M1664.7518,364.0994H1869.588v24.58h-88.5918v57.3545h-27.91V388.679h-88.3348Zm43.7841-109.077h117.268V226.8581h27.3955V334.1405H1681.1381V226.8581h27.3978Zm117.268,24.07h-117.268v30.7255h117.268Z" style="fill: #575757"/>
    </g>
  </g>
</svg>
