<?xml version="1.0" encoding="utf-8"?>
<!-- Generator: Adobe Illustrator 25.0.1, SVG Export Plug-In . SVG Version: 6.00 Build 0)  -->
<svg version="1.2" baseProfile="tiny" id="레이어_1"
	 xmlns="http://www.w3.org/2000/svg" xmlns:xlink="http://www.w3.org/1999/xlink" x="0px" y="0px" viewBox="0 0 2048 655.83"
	 overflow="visible" xml:space="preserve">
<g>
	<g>
		<path fill="#FFFFFF" d="M638.0542,334.543c0,130.5961-105.8796,236.4663-236.4663,236.4663
			c-130.5992,0-236.4663-105.8702-236.4663-236.4663c0-130.5898,105.8671-236.46,236.4663-236.46
			C532.1746,98.083,638.0542,203.9532,638.0542,334.543z"/>
		<g>
			<g>
				<g>
					<g>
						<g>
							<g>
								<path fill="#003764" d="M512.5749,318.0612c-37.6124-25.5621-85.7661-15.153-111.0852,23.2805
									c-21.0601,32.1241-52.9354,36.1212-65.2137,36.1212c-40.2724,0-67.7503-28.3079-75.9175-57.5842
									c0,0-0.3993-1.4825-0.5038-1.8175c-3.2105-12.2379-4.0222-18.0499-4.0222-31.0353
									c0-69.9733,71.8493-147.9205,175.244-147.9205c105.9257,0,166.5485,80.6343,182.2122,125.4611
									c-0.3136-0.8426-0.5687-1.5927-0.8237-2.383C582.4134,174.52,499.2972,111.5111,401.3852,111.5111
									c-123.1084,0-222.9733,99.8127-222.9733,223.0256c0,110.1048,79.4132,204.3427,189.5916,204.3427
									c87.8298,0,146.8807-49.2422,173.9285-117.1401C556.8053,384.5879,546.3011,340.9664,512.5749,318.0612z"/>
							</g>
							<g>
								<path fill="#E4032E" d="M614.654,268.8961c-13.0654-43.7316-74.0786-129.7906-183.5775-129.7906
									c-103.3947,0-175.244,77.9472-175.244,147.9205c0,12.9854,0.8117,18.7974,4.0222,31.0353
									c-1.3439-5.3598-2.0297-10.6944-2.0297-15.9125c0-72.8947,72.9684-123.3886,147.9879-123.3886
									c101.581,0,183.9062,82.3283,183.9062,183.8665c0,79.5946-45.8168,148.5382-112.3522,181.6308v0.0615
									c85.8033-31.0754,147.0747-113.2688,147.0747-209.7822C624.4416,311.6932,621.3791,291.5462,614.654,268.8961z"/>
							</g>
						</g>
					</g>
				</g>
			</g>
		</g>
	</g>
	<g>
		<path fill="#575757" d="M809.5741,405.0653v-69.1324h27.6525v69.1324h98.3225v24.5817H730.7131v-24.5817H809.5741z
			 M890.9963,366.1466V259.8878H746.5876v-24.5795h172.0612v130.8383H890.9963z"/>
		<path fill="#575757" d="M1169.0592,324.6667v23.8129H964.2231v-23.8129h41.2229v-20.7378h27.3956v20.7378h67.597v-20.7378h27.3955
			v20.7378H1169.0592z M1121.6903,262.7039c0,6.8298-1.4526,13.3156-4.3536,19.4594c-2.9031,6.146-6.8276,11.5232-11.778,16.1316
			c-5.1201,4.6084-11.0092,8.2825-17.6669,11.0092c-6.6578,2.7332-13.7424,4.0988-21.2518,4.0988
			c-7.5137,0-14.5939-1.3655-21.2517-4.0988c-6.6577-2.7267-12.5468-6.4008-17.667-11.0092
			c-4.9525-4.6084-8.877-9.9856-11.778-16.1316c-2.9053-6.1438-4.3536-12.6295-4.3536-19.4594
			c0-6.8233,1.4483-13.3134,4.3536-19.4594c2.9009-6.1438,6.8255-11.521,11.778-16.1294
			c5.1202-4.6084,11.0093-8.2781,17.667-11.0114c6.6578-2.7267,13.738-4.0966,21.2517-4.0966c7.5094,0,14.594,1.3699,21.2518,4.0966
			c6.6577,2.7332,12.5468,6.403,17.6669,11.0114c4.9503,4.6084,8.8749,9.9856,11.778,16.1294
			C1120.2377,249.3905,1121.6903,255.8806,1121.6903,262.7039z M1121.6903,405.3223c0,6.8277-1.4526,13.3134-4.3536,19.4594
			c-2.9031,6.1438-6.8276,11.521-11.778,16.1294c-5.1201,4.6106-11.0092,8.2781-17.6669,11.0114
			c-6.6578,2.7289-13.7424,4.0966-21.2518,4.0966c-7.5137,0-14.5939-1.3677-21.2517-4.0966
			c-6.6577-2.7332-12.5468-6.4008-17.667-11.0114c-4.9525-4.6084-8.877-9.9856-11.778-16.1294
			c-2.9053-6.146-4.3536-12.6317-4.3536-19.4594c0-6.8255,1.4483-13.3156,4.3536-19.4594
			c2.9009-6.146,6.8255-11.5232,11.778-16.1316c5.1202-4.6084,11.0093-8.2781,17.667-11.0092
			c6.6578-2.7289,13.738-4.0966,21.2517-4.0966c7.5094,0,14.594,1.3677,21.2518,4.0966c6.6577,2.731,12.5468,6.4008,17.6669,11.0092
			c4.9503,4.6084,8.8749,9.9856,11.778,16.1316C1120.2377,392.0067,1121.6903,398.4968,1121.6903,405.3223z M1094.2926,262.7039
			c0-7.6814-2.6875-14.1214-8.0647-19.3309c-5.3772-5.2051-11.9065-7.8099-19.5879-7.8099s-14.2106,2.6047-19.5878,7.8099
			c-5.3772,5.2095-8.0647,11.6495-8.0647,19.3309c0,7.6814,2.6875,14.1279,8.0647,19.333
			c5.3772,5.2073,11.9064,7.8077,19.5878,7.8077s14.2107-2.6004,19.5879-7.8077
			C1091.6051,276.8318,1094.2926,270.3852,1094.2926,262.7039z M1094.2926,405.3223c0-7.6814-2.6875-14.1235-8.0647-19.3308
			c-5.3772-5.2051-11.9065-7.8099-19.5879-7.8099s-14.2106,2.6047-19.5878,7.8099c-5.3772,5.2073-8.0647,11.6495-8.0647,19.3308
			c0,7.6814,2.6875,14.1257,8.0647,19.3309c5.3772,5.2051,11.9064,7.8098,19.5878,7.8098s14.2107-2.6047,19.5879-7.8098
			C1091.6051,419.448,1094.2926,413.0037,1094.2926,405.3223z"/>
		<path fill="#575757" d="M1214.1195,351.2956V232.4923h27.6525v94.2238h146.9698v24.5796h-74.7644v53.7697h88.5918v24.5817
			h-204.8361v-24.5817h88.3347v-53.7697H1214.1195z"/>
		<path fill="#575757" d="M1447.6295,302.1365v-76.302h172.0601v23.556h-144.4075v29.4449h144.9215v23.3011h-72.7151v20.226h88.5918
			v23.8129h-204.8372v-23.8129h88.3336v-20.226H1447.6295z M1589.735,404.2987c0,7.1674-1.4983,13.8687-4.4821,20.0974
			c-2.988,6.2309-7.0388,11.7344-12.1613,16.5149c-4.9525,4.6106-10.8414,8.2781-17.667,11.0114
			c-6.8298,2.7289-14.0822,4.0966-21.7656,4.0966c-7.6792,0-14.9359-1.3677-21.7615-4.0966
			c-6.8308-2.7332-12.7198-6.4008-17.668-11.0114c-5.1202-4.7804-9.1776-10.2839-12.1613-16.5149
			c-2.9902-6.2287-4.4822-12.9301-4.4822-20.0974c0-7.1696,1.4919-13.8666,4.4822-20.0997
			c2.9836-6.2309,7.041-11.7344,12.1613-16.5148c4.9481-4.6106,10.8372-8.2781,17.668-11.0114
			c6.8256-2.7289,14.0823-4.0966,21.7615-4.0966c7.6835,0,14.9358,1.3677,21.7656,4.0966
			c6.8256,2.7332,12.7145,6.4008,17.667,11.0114c5.1224,4.7804,9.1732,10.2839,12.1613,16.5148
			C1588.2367,390.4321,1589.735,397.1291,1589.735,404.2987z M1562.3373,404.2987c0-7.6814-2.8617-14.2956-8.5764-19.8448
			c-5.7235-5.5449-12.4183-8.3217-20.1018-8.3217c-7.6792,0-14.3828,2.7768-20.0975,8.3217
			c-5.7235,5.5492-8.5775,12.1635-8.5775,19.8448c0,7.6792,2.854,14.2978,8.5775,19.8427
			c5.7147,5.5449,12.4183,8.3217,20.0975,8.3217c7.6835,0,14.3783-2.7768,20.1018-8.3217
			C1559.4756,418.5964,1562.3373,411.9779,1562.3373,404.2987z"/>
		<path fill="#575757" d="M1664.7499,364.0994h204.8383v24.5796h-88.5918v57.3544h-27.9116v-57.3544h-88.3348V364.0994z
			 M1708.5339,255.0225h117.2701v-28.1643h27.3933v107.2823h-172.0612V226.8581h27.3977V255.0225z M1825.8041,279.0924h-117.2701
			v30.7255h117.2701V279.0924z"/>
	</g>
</g>
</svg>
